<svg aria-hidden="true" style="position: absolute; width: 0; height: 0; overflow: hidden;" version="1.1" xmlns="http://www.w3.org/2000/svg" xmlns:xlink="http://www.w3.org/1999/xlink">
<defs>
<symbol id="icon-chevron-left" viewBox="0 0 20 20">
<path d="M12.452 4.516c0.446 0.436 0.481 1.043 0 1.576l-3.747 3.908 3.747 3.908c0.481 0.533 0.446 1.141 0 1.574-0.445 0.436-1.197 0.408-1.615 0-0.418-0.406-4.502-4.695-4.502-4.695-0.223-0.217-0.335-0.502-0.335-0.787s0.112-0.57 0.335-0.789c0 0 4.084-4.287 4.502-4.695s1.17-0.436 1.615 0z"></path>
</symbol>
<symbol id="icon-chevron-right" viewBox="0 0 20 20">
<path d="M9.163 4.516c0.418 0.408 4.502 4.695 4.502 4.695 0.223 0.219 0.335 0.504 0.335 0.789s-0.112 0.57-0.335 0.787c0 0-4.084 4.289-4.502 4.695-0.418 0.408-1.17 0.436-1.615 0-0.446-0.434-0.481-1.041 0-1.574l3.747-3.908-3.747-3.908c-0.481-0.533-0.446-1.141 0-1.576s1.197-0.409 1.615 0z"></path>
</symbol>
<symbol id="icon-chevron-small-down" viewBox="0 0 20 20">
<path d="M13.418 7.859c0.271-0.268 0.709-0.268 0.978 0s0.272 0.701 0 0.969l-3.908 3.83c-0.27 0.268-0.707 0.268-0.979 0l-3.908-3.83c-0.27-0.267-0.27-0.701 0-0.969s0.709-0.268 0.978 0l3.421 3.141 3.418-3.141z"></path>
</symbol>
<symbol id="icon-resize-full-screen" viewBox="0 0 20 20">
<path d="M6.987 10.987l-2.931 3.031-2.056-2.429v6.411h6.387l-2.43-2.081 3.030-2.932-2-2zM11.613 2l2.43 2.081-3.030 2.932 2 2 2.931-3.031 2.056 2.429v-6.411h-6.387z"></path>
</symbol>
<symbol id="icon-magnifying-glass" viewBox="0 0 20 20">
<path d="M17.545 15.467l-3.779-3.779c0.57-0.935 0.898-2.035 0.898-3.21 0-3.417-2.961-6.377-6.378-6.377s-6.186 2.769-6.186 6.186c0 3.416 2.961 6.377 6.377 6.377 1.137 0 2.2-0.309 3.115-0.844l3.799 3.801c0.372 0.371 0.975 0.371 1.346 0l0.943-0.943c0.371-0.371 0.236-0.84-0.135-1.211zM4.004 8.287c0-2.366 1.917-4.283 4.282-4.283s4.474 2.107 4.474 4.474c0 2.365-1.918 4.283-4.283 4.283s-4.473-2.109-4.473-4.474z"></path>
</symbol>
<symbol id="icon-mail" viewBox="0 0 20 20">
<path d="M1.574 5.286c0.488 0.262 7.248 3.894 7.5 4.029s0.578 0.199 0.906 0.199c0.328 0 0.654-0.064 0.906-0.199s7.012-3.767 7.5-4.029c0.489-0.263 0.951-1.286 0.054-1.286h-16.919c-0.897 0-0.435 1.023 0.053 1.286zM18.613 7.489c-0.555 0.289-7.387 3.849-7.727 4.027s-0.578 0.199-0.906 0.199-0.566-0.021-0.906-0.199-7.133-3.739-7.688-4.028c-0.39-0.204-0.386 0.035-0.386 0.219s0 7.293 0 7.293c0 0.42 0.566 1 1 1h16c0.434 0 1-0.58 1-1 0 0 0-7.108 0-7.292s0.004-0.423-0.387-0.219z"></path>
</symbol>
<symbol id="icon-megaphone" viewBox="0 0 20 20">
<path d="M17.223 7.030c-1.584-3.686-4.132-6.49-5.421-5.967-2.189 0.891 1.304 5.164-9.447 9.533-0.929 0.379-1.164 1.888-0.775 2.792 0.388 0.902 1.658 1.801 2.587 1.424 0.161-0.066 0.751-0.256 0.751-0.256 0.663 0.891 1.357 0.363 1.604 0.928 0.296 0.68 0.939 2.158 1.158 2.66s0.715 0.967 1.075 0.83c0.359-0.137 1.582-0.602 2.050-0.779s0.579-0.596 0.436-0.924c-0.154-0.355-0.786-0.459-0.967-0.873-0.18-0.412-0.769-1.738-0.938-2.156-0.23-0.568 0.259-1.031 0.97-1.104 4.894-0.512 5.809 2.512 7.475 1.834 1.287-0.525 1.025-4.259-0.558-7.942zM16.672 13.006c-0.287 0.115-2.213-1.402-3.443-4.267-1.231-2.863-1.076-5.48-0.79-5.597 0.286-0.115 2.165 1.717 3.395 4.58s1.124 5.167 0.838 5.284z"></path>
</symbol>
<symbol id="icon-squared-cross" viewBox="0 0 20 20">
<path d="M16 2h-12c-1.1 0-2 0.9-2 2v12c0 1.1 0.9 2 2 2h12c1.1 0 2-0.9 2-2v-12c0-1.1-0.9-2-2-2zM13.061 14.789l-3.061-3.060-3.061 3.060-1.729-1.728 3.061-3.061-3.060-3.061 1.729-1.729 3.060 3.061 3.059-3.061 1.729 1.729-3.059 3.061 3.060 3.061-1.728 1.728z"></path>
</symbol>
<symbol id="icon-squared-minus" viewBox="0 0 20 20">
<path d="M16 2h-12c-1.1 0-2 0.9-2 2v12c0 1.1 0.9 2 2 2h12c1.1 0 2-0.9 2-2v-12c0-1.1-0.9-2-2-2zM15 11h-10v-2h10v2z"></path>
</symbol>
<symbol id="icon-squared-plus" viewBox="0 0 20 20">
<path d="M16 2h-12c-1.1 0-2 0.9-2 2v12c0 1.1 0.9 2 2 2h12c1.1 0 2-0.9 2-2v-12c0-1.1-0.9-2-2-2zM15 11h-4v4h-2v-4h-4v-2h4v-4h2v4h4v2z"></path>
</symbol>
</defs>
</svg>
